<?xml version="1.0" encoding="UTF-8"?>
<svg xmlns="http://www.w3.org/2000/svg" style="display:none">
  <symbol id="icon-shield" viewBox="0 0 24 24">
    <path d="M12 2L3 5v6c0 5 3.8 9.7 9 11 5.2-1.3 9-6 9-11V5l-9-3z" fill="currentColor"/>
  </symbol>
  <symbol id="icon-helmet" viewBox="0 0 24 24">
    <path d="M12 2C7.6 2 4 4 2 7c2 2 5 4 10 4s8-2 10-4c-2-3-5.6-5-10-5z" fill="currentColor"/>
    <path d="M3 12v2a2 2 0 0 0 2 2h14a2 2 0 0 0 2-2v-2" fill="currentColor" opacity="0.15"/>
  </symbol>
  <symbol id="icon-clipboard" viewBox="0 0 24 24">
    <rect x="7" y="3" width="10" height="18" rx="2" ry="2" stroke="currentColor" fill="none" stroke-width="1.2"/>
    <path d="M9 8h6M9 12h6M9 16h4" stroke="currentColor" stroke-width="1" stroke-linecap="round"/>
  </symbol>
  <symbol id="icon-check" viewBox="0 0 24 24">
    <circle cx="12" cy="12" r="10" stroke="currentColor" stroke-width="1.2" fill="none"/>
    <path d="M9 12l2 2 4-4" stroke="currentColor" stroke-width="1.5" stroke-linecap="round" stroke-linejoin="round" fill="none"/>
  </symbol>
</svg>
